<mxfile host="app.diagrams.net" modified="2021-09-23T21:47:32.645Z" agent="5.0 (Windows NT 10.0; Win64; x64) AppleWebKit/537.36 (KHTML, like Gecko) Chrome/93.0.4577.82 Safari/537.36" etag="H5ucH_LEM-rNiBp6USOG" version="15.3.1" type="github">
  <diagram id="6a731a19-8d31-9384-78a2-239565b7b9f0" name="Page-1">
    <mxGraphModel dx="1422" dy="794" grid="1" gridSize="10" guides="1" tooltips="1" connect="1" arrows="1" fold="1" page="1" pageScale="1" pageWidth="1169" pageHeight="827" background="#003469" math="0" shadow="0">
      <root>
        <mxCell id="0" />
        <mxCell id="1" parent="0" />
        <mxCell id="2022" value="" style="rounded=1;whiteSpace=wrap;html=1;dashed=1;strokeColor=none;strokeWidth=2;fillColor=#E6E6E6;fontFamily=Verdana;fontSize=12;fontColor=#00BEF2" parent="1" vertex="1">
          <mxGeometry x="870" y="130" width="195" height="670" as="geometry" />
        </mxCell>
        <mxCell id="W9i3NO5GFUiRPg8KUzHi-2099" value="APIS OFSC" style="rounded=1;whiteSpace=wrap;html=1;dashed=1;strokeColor=none;strokeWidth=2;fillColor=#FFFFFF;fontFamily=Helvetica;fontSize=14;fontColor=#FFB366;opacity=75;verticalAlign=top;fontStyle=1;arcSize=17;" vertex="1" parent="1">
          <mxGeometry x="880" y="201" width="170" height="549" as="geometry" />
        </mxCell>
        <mxCell id="2020" value="" style="rounded=1;whiteSpace=wrap;html=1;dashed=1;strokeColor=none;strokeWidth=2;fillColor=#E6E6E6;fontFamily=Verdana;fontSize=12;fontColor=#00BEF2" parent="1" vertex="1">
          <mxGeometry x="343" y="130" width="217" height="670" as="geometry" />
        </mxCell>
        <mxCell id="2068" value="" style="rounded=1;whiteSpace=wrap;html=1;dashed=1;strokeColor=none;strokeWidth=2;fillColor=#FFFFFF;fontFamily=Helvetica;fontSize=14;fontColor=#FFB366;opacity=75;verticalAlign=top;fontStyle=1;arcSize=17;" parent="1" vertex="1">
          <mxGeometry x="355.5" y="201" width="184.5" height="469" as="geometry" />
        </mxCell>
        <mxCell id="2019" value="" style="rounded=1;whiteSpace=wrap;html=1;dashed=1;strokeColor=none;strokeWidth=2;fillColor=#E6E6E6;fontFamily=Verdana;fontSize=12;fontColor=#00BEF2;labelBackgroundColor=none;verticalAlign=bottom;" parent="1" vertex="1">
          <mxGeometry x="100" y="130" width="205" height="670" as="geometry" />
        </mxCell>
        <mxCell id="2021" value="" style="rounded=1;whiteSpace=wrap;html=1;dashed=1;strokeColor=none;strokeWidth=2;fillColor=#E6E6E6;fontFamily=Verdana;fontSize=12;fontColor=#00BEF2" parent="1" vertex="1">
          <mxGeometry x="604" y="130" width="226" height="670" as="geometry" />
        </mxCell>
        <mxCell id="2025" value="PISA&lt;br&gt;OS" style="whiteSpace=wrap;html=1;dashed=1;strokeColor=none;strokeWidth=2;fillColor=#3399FF;fontFamily=Helvetica;fontSize=18;fontColor=#FFFFFF;fontStyle=1" parent="1" vertex="1">
          <mxGeometry x="100" y="130" width="205" height="60" as="geometry" />
        </mxCell>
        <mxCell id="2026" value="PISAPLEX 11" style="whiteSpace=wrap;html=1;dashed=1;strokeColor=none;strokeWidth=2;fillColor=#3399FF;fontFamily=Helvetica;fontSize=18;fontColor=#FFFFFF;fontStyle=1" parent="1" vertex="1">
          <mxGeometry x="343" y="130" width="217" height="60" as="geometry" />
        </mxCell>
        <mxCell id="2027" value="MIDDLEWARE" style="whiteSpace=wrap;html=1;dashed=1;strokeColor=none;strokeWidth=2;fillColor=#3399FF;fontFamily=Helvetica;fontSize=18;fontColor=#FFFFFF;fontStyle=1" parent="1" vertex="1">
          <mxGeometry x="604" y="130" width="226" height="60" as="geometry" />
        </mxCell>
        <mxCell id="2028" value="OFSC" style="whiteSpace=wrap;html=1;dashed=1;strokeColor=none;strokeWidth=2;fillColor=#3399FF;fontFamily=Helvetica;fontSize=18;fontColor=#FFFFFF;fontStyle=1" parent="1" vertex="1">
          <mxGeometry x="870" y="130" width="195" height="60" as="geometry" />
        </mxCell>
        <mxCell id="2031" value="" style="shape=mxgraph.arrows.two_way_arrow_horizontal;html=1;verticalLabelPosition=bottom;verticalAlign=top;strokeWidth=2;strokeColor=none;dashed=1;fillColor=#FFFFFF;fontFamily=Verdana;fontSize=12;fontColor=#00BEF2" parent="1" vertex="1">
          <mxGeometry x="280" y="140.5" width="90" height="39" as="geometry" />
        </mxCell>
        <mxCell id="2032" value="" style="shape=mxgraph.arrows.two_way_arrow_horizontal;html=1;verticalLabelPosition=bottom;verticalAlign=top;strokeWidth=2;strokeColor=none;dashed=1;fillColor=#FFFFFF;fontFamily=Verdana;fontSize=12;fontColor=#00BEF2" parent="1" vertex="1">
          <mxGeometry x="542" y="140.5" width="88" height="39" as="geometry" />
        </mxCell>
        <mxCell id="2033" value="" style="shape=mxgraph.arrows.two_way_arrow_horizontal;html=1;verticalLabelPosition=bottom;verticalAlign=top;strokeWidth=2;strokeColor=none;dashed=1;fillColor=#FFFFFF;fontFamily=Verdana;fontSize=12;fontColor=#00BEF2" parent="1" vertex="1">
          <mxGeometry x="790" y="140.5" width="102.5" height="39" as="geometry" />
        </mxCell>
        <mxCell id="2047" value="PISAPLEX11" style="text;html=1;strokeColor=none;fillColor=none;align=center;verticalAlign=middle;whiteSpace=wrap;overflow=hidden;dashed=1;fontSize=36;fontColor=#FFFFFF;fontFamily=Helvetica;fontStyle=1" parent="1" vertex="1">
          <mxGeometry x="170" y="70" width="770" height="50" as="geometry" />
        </mxCell>
        <mxCell id="2048" value="JAR PLEX" style="rounded=1;whiteSpace=wrap;html=1;dashed=1;strokeColor=none;strokeWidth=2;fillColor=#FFFFFF;fontFamily=Helvetica;fontSize=14;fontColor=#FFB366;opacity=75;verticalAlign=top;fontStyle=1" parent="1" vertex="1">
          <mxGeometry x="614" y="200" width="206" height="180" as="geometry" />
        </mxCell>
        <mxCell id="2050" value="OFSACTIVITY" style="verticalLabelPosition=bottom;html=1;verticalAlign=top;strokeColor=none;fillColor=#3399FF;shape=mxgraph.azure.sql_reporting;dashed=1;fontSize=14;fontColor=#004C99" parent="1" vertex="1">
          <mxGeometry x="416.25" y="270" width="63" height="75" as="geometry" />
        </mxCell>
        <mxCell id="2075" value="ESCRIBE TAREA&lt;br&gt;SV8008" style="arrow;html=1;endArrow=block;endFill=1;strokeColor=none;strokeWidth=4;fontFamily=Helvetica;fontSize=12;fontColor=#000099;fillColor=#FFB366;labelBackgroundColor=none;" parent="1" edge="1">
          <mxGeometry x="-1" y="-57" width="100" height="100" relative="1" as="geometry">
            <mxPoint x="290" y="290" as="sourcePoint" />
            <mxPoint x="370" y="290" as="targetPoint" />
            <mxPoint x="-57" y="-57" as="offset" />
          </mxGeometry>
        </mxCell>
        <object label="PS" A0="" id="W9i3NO5GFUiRPg8KUzHi-2088">
          <mxCell style="shape=step;perimeter=stepPerimeter;whiteSpace=wrap;html=1;fixedSize=1;" vertex="1" parent="1">
            <mxGeometry x="163" y="230" width="67" height="40" as="geometry" />
          </mxCell>
        </object>
        <mxCell id="W9i3NO5GFUiRPg8KUzHi-2094" value="" style="sketch=0;html=1;dashed=0;whitespace=wrap;fillColor=#2875E2;strokeColor=#ffffff;points=[[0.005,0.63,0],[0.1,0.2,0],[0.9,0.2,0],[0.5,0,0],[0.995,0.63,0],[0.72,0.99,0],[0.5,1,0],[0.28,0.99,0]];shape=mxgraph.kubernetes.icon;prIcon=api;labelBackgroundColor=none;fontSize=12;fontColor=#000099;verticalAlign=bottom;" vertex="1" parent="1">
          <mxGeometry x="696" y="230" width="50" height="48" as="geometry" />
        </mxCell>
        <mxCell id="W9i3NO5GFUiRPg8KUzHi-2095" value="" style="rounded=1;whiteSpace=wrap;html=1;dashed=1;strokeColor=none;strokeWidth=2;fillColor=#FFFFFF;fontFamily=Helvetica;fontSize=14;fontColor=#FFB366;opacity=75;verticalAlign=top;fontStyle=1;arcSize=17;" vertex="1" parent="1">
          <mxGeometry x="614" y="386" width="206" height="374" as="geometry" />
        </mxCell>
        <mxCell id="W9i3NO5GFUiRPg8KUzHi-2096" value="" style="shape=image;verticalLabelPosition=bottom;labelBackgroundColor=#ffffff;verticalAlign=top;aspect=fixed;imageAspect=0;image=data:image/svg+xml,PHN2ZyB4bWxuczpjYz0iaHR0cDovL2NyZWF0aXZlY29tbW9ucy5vcmcvbnMjIiB4bWxuczpkYz0iaHR0cDovL3B1cmwub3JnL2RjL2VsZW1lbnRzLzEuMS8iIHhtbG5zOmlua3NjYXBlPSJodHRwOi8vd3d3Lmlua3NjYXBlLm9yZy9uYW1lc3BhY2VzL2lua3NjYXBlIiB4bWxuczpyZGY9Imh0dHA6Ly93d3cudzMub3JnLzE5OTkvMDIvMjItcmRmLXN5bnRheC1ucyMiIHhtbG5zOnNvZGlwb2RpPSJodHRwOi8vc29kaXBvZGkuc291cmNlZm9yZ2UubmV0L0RURC9zb2RpcG9kaS0wLmR0ZCIgeG1sbnM6c3ZnPSJodHRwOi8vd3d3LnczLm9yZy8yMDAwL3N2ZyIgeG1sbnM9Imh0dHA6Ly93d3cudzMub3JnLzIwMDAvc3ZnIiB4bWxuczp4bGluaz0iaHR0cDovL3d3dy53My5vcmcvMTk5OS94bGluayIgdmVyc2lvbj0iMS4xIiBpZD0ic3ZnNjg2NjEiIGlua3NjYXBlOnZlcnNpb249IjAuOTIuMyAoMjQwNTU0NiwgMjAxOC0wMy0xMSkiIHNvZGlwb2RpOmRvY25hbWU9Impzb24uc3ZnIiB4PSIwcHgiIHk9IjBweCIgdmlld0JveD0iMCAwIDI2LjcyIDM1LjE1IiBzdHlsZT0iZW5hYmxlLWJhY2tncm91bmQ6bmV3IDAgMCAyNi43MiAzNS4xNTsiIHhtbDpzcGFjZT0icHJlc2VydmUiPiYjeGE7PHNvZGlwb2RpOm5hbWVkdmlldyBib3JkZXJjb2xvcj0iIzY2NjY2NiIgYm9yZGVyb3BhY2l0eT0iMSIgZml0LW1hcmdpbi1ib3R0b209IjAiIGZpdC1tYXJnaW4tbGVmdD0iMCIgZml0LW1hcmdpbi1yaWdodD0iMCIgZml0LW1hcmdpbi10b3A9IjAiIGdyaWR0b2xlcmFuY2U9IjEwIiBndWlkZXRvbGVyYW5jZT0iMTAiIGlkPSJuYW1lZHZpZXc2ODY2MyIgaW5rc2NhcGU6Y3VycmVudC1sYXllcj0ic3ZnNjg2NjEiIGlua3NjYXBlOmN4PSIyOC4zNjg5MTgiIGlua3NjYXBlOmN5PSIxNC4yOTU4NyIgaW5rc2NhcGU6cGFnZW9wYWNpdHk9IjAiIGlua3NjYXBlOnBhZ2VzaGFkb3c9IjIiIGlua3NjYXBlOndpbmRvdy1oZWlnaHQ9IjEwMTciIGlua3NjYXBlOndpbmRvdy1tYXhpbWl6ZWQ9IjEiIGlua3NjYXBlOndpbmRvdy13aWR0aD0iMTkyMCIgaW5rc2NhcGU6d2luZG93LXg9Ii04IiBpbmtzY2FwZTp3aW5kb3cteT0iLTgiIGlua3NjYXBlOnpvb209IjUuNzAzMDQ0NyIgb2JqZWN0dG9sZXJhbmNlPSIxMCIgcGFnZWNvbG9yPSIjZmZmZmZmIiBzaG93Z3JpZD0iZmFsc2UiPiYjeGE7CTwvc29kaXBvZGk6bmFtZWR2aWV3PiYjeGE7PGcgaWQ9Imc2ODY1OSIgdHJhbnNmb3JtPSJ0cmFuc2xhdGUoLTEwLjkyODYsLTEwLjkzMTQpIj4mI3hhOwk8dGl0bGUgaWQ9InRpdGxlNjg1ODciPlBhZ2UtMTwvdGl0bGU+JiN4YTsJPGcgaWQ9Imdyb3VwNDEzMy0xIiB0cmFuc2Zvcm09InRyYW5zbGF0ZSgxMC45Mjg2LC0xMC45Mjg2KSI+JiN4YTsJCTx0aXRsZSBpZD0idGl0bGU2ODU4OSI+SlNPTjwvdGl0bGU+JiN4YTsJCTxnIGlkPSJncm91cDQxMzQtMiI+JiN4YTsJCQk8dGl0bGUgaWQ9InRpdGxlNjg1OTEiPkpTPC90aXRsZT4mI3hhOwkJCTxnIGlkPSJncm91cDQxMzUtMyI+JiN4YTsJCQkJPHRpdGxlIGlkPSJ0aXRsZTY4NTkzIj5TaGVldC40MTM1PC90aXRsZT4mI3hhOwkJCQk8ZyBpZD0ic2hhcGU0MTM2LTQiPiYjeGE7CQkJCQk8dGl0bGUgaWQ9InRpdGxlNjg1OTUiPlNoZWV0LjQxMzY8L3RpdGxlPiYjeGE7CQkJCQk8cGF0aCBpZD0icGF0aDY4NTk3IiBpbmtzY2FwZTpjb25uZWN0b3ItY3VydmF0dXJlPSIwIiBzdHlsZT0iZmlsbDojRTlFOUUwOyIgZD0iTTE4Ljk0LDIxLjg2SDAuOTFjLTAuNSwwLTAuOTEsMC40MS0wLjkxLDEuMjEgICAgICAgdjMzLjMxYzAsMC4yMiwwLjQxLDAuNjMsMC45MSwwLjYzaDI0LjljMC41LDAsMC45MS0wLjQxLDAuOTEtMC42M1YzMGMwLTAuNDMtMC4wNi0wLjU3LTAuMTYtMC42OGwtNy4yMy03LjMgICAgICAgQzE5LjIzLDIxLjkyLDE5LjA5LDIxLjg2LDE4Ljk0LDIxLjg2eiIvPiYjeGE7CQkJCTwvZz4mI3hhOwkJCQk8ZyBpZD0ic2hhcGU0MTM3LTYiIHRyYW5zZm9ybT0idHJhbnNsYXRlKDE5LjI2MiwtMjcuNjE5MykiPiYjeGE7CQkJCQk8dGl0bGUgaWQ9InRpdGxlNjg2MDAiPlNoZWV0LjQxMzc8L3RpdGxlPiYjeGE7CQkJCQk8cGF0aCBpZD0icGF0aDY4NjAyIiBpbmtzY2FwZTpjb25uZWN0b3ItY3VydmF0dXJlPSIwIiBzdHlsZT0iZmlsbDojRDlEN0NBOyIgZD0iTTAsNDkuNTd2Ny40NGg3LjM2TDAsNDkuNTd6Ii8+JiN4YTsJCQkJPC9nPiYjeGE7CQkJCTxnIGlkPSJzaGFwZTQxMzgtOCI+JiN4YTsJCQkJCTx0aXRsZSBpZD0idGl0bGU2ODYwNSI+U2hlZXQuNDEzODwvdGl0bGU+JiN4YTsJCQkJCTxwYXRoIGlkPSJwYXRoNjg2MDciIGlua3NjYXBlOmNvbm5lY3Rvci1jdXJ2YXR1cmU9IjAiIHN0eWxlPSJmaWxsOiNFRUFGNEI7IiBkPSJNMjUuODEsNTcuMDFIMC45MUMwLjQxLDU3LjAxLDAsNTYuNiwwLDU2LjA5ICAgICAgIHYtOS43NWgyNi43MnY5Ljc1QzI2LjcyLDU2LjYsMjYuMzEsNTcuMDEsMjUuODEsNTcuMDF6Ii8+JiN4YTsJCQkJPC9nPiYjeGE7CQkJCTxnIGlkPSJncm91cDQxMzktMTAiIHRyYW5zZm9ybT0idHJhbnNsYXRlKDQuOTcwODUsLTE1LjA2NTEpIj4mI3hhOwkJCQkJPHRpdGxlIGlkPSJ0aXRsZTY4NjEwIj5TaGVldC40MTM5PC90aXRsZT4mI3hhOwkJCQkJPGcgaWQ9InNoYXBlNDE0MC0xMSI+JiN4YTsJCQkJCQk8dGl0bGUgaWQ9InRpdGxlNjg2MTIiPlNoZWV0LjQxNDA8L3RpdGxlPiYjeGE7CQkJCQkJPHBhdGggaWQ9InBhdGg2ODYxNCIgaW5rc2NhcGU6Y29ubmVjdG9yLWN1cnZhdHVyZT0iMCIgc3R5bGU9ImZpbGw6I0VFQUY0QjsiIGQ9Ik0zLjExLDQ4Ljg1di0yLjUxICAgICAgICBjMC0wLjM1LDAuMjgtMC42MywwLjYyLTAuNjNzMC42Mi0wLjI4LDAuNjItMC42M2MwLTAuMzQtMC4yOC0wLjYzLTAuNjItMC42M2MtMS4wMywwLTEuODcsMC44NS0xLjg3LDEuODl2Mi41MSAgICAgICAgYzAsMC42OS0wLjU1LDEuMjUtMS4yNCwxLjI1QzAuMjgsNTAuMSwwLDUwLjM5LDAsNTAuNzNjMCwwLjM1LDAuMjgsMC42MywwLjYyLDAuNjNjMC42OSwwLDEuMjQsMC41NiwxLjI0LDEuMjZ2Mi41MSAgICAgICAgYzAsMS4wMywwLjg0LDEuODgsMS44NywxLjg4YzAuMzQsMCwwLjYyLTAuMjgsMC42Mi0wLjYzYzAtMC4zNS0wLjI4LTAuNjMtMC42Mi0wLjYzcy0wLjYyLTAuMjgtMC42Mi0wLjYydi0yLjUxICAgICAgICBjMC0wLjc2LTAuMzQtMS40My0wLjg2LTEuODlDMi43Nyw1MC4yNywzLjExLDQ5LjYsMy4xMSw0OC44NXoiLz4mI3hhOwkJCQkJPC9nPiYjeGE7CQkJCQk8ZyBpZD0ic2hhcGU0MTQxLTEzIiB0cmFuc2Zvcm09InRyYW5zbGF0ZSg3LjE0NTU5LC03LjUzMjU0KSI+JiN4YTsJCQkJCQk8dGl0bGUgaWQ9InRpdGxlNjg2MTciPlNoZWV0LjQxNDE8L3RpdGxlPiYjeGE7CQkJCQkJPGVsbGlwc2UgaWQ9ImVsbGlwc2U2ODYxOSIgc3R5bGU9ImZpbGw6I0VFQUY0QjsiIGN4PSIwLjkzIiBjeT0iNTYuMDciIHJ4PSIwLjkzIiByeT0iMC45NCIvPiYjeGE7CQkJCQk8L2c+JiN4YTsJCQkJCTxnIGlkPSJzaGFwZTQxNDItMTUiIHRyYW5zZm9ybT0idHJhbnNsYXRlKDExLjgwNTgpIj4mI3hhOwkJCQkJCTx0aXRsZSBpZD0idGl0bGU2ODYyMiI+U2hlZXQuNDE0MjwvdGl0bGU+JiN4YTsJCQkJCQk8cGF0aCBpZD0icGF0aDY4NjI0IiBpbmtzY2FwZTpjb25uZWN0b3ItY3VydmF0dXJlPSIwIiBzdHlsZT0iZmlsbDojRUVBRjRCOyIgZD0iTTMuNzMsNTAuMWMtMC42OSwwLTEuMjQtMC41Ni0xLjI0LTEuMjUgICAgICAgIHYtMi41MWMwLTEuMDQtMC44NC0xLjg5LTEuODctMS44OUMwLjI4LDQ0LjQ1LDAsNDQuNzQsMCw0NS4wOGMwLDAuMzUsMC4yOCwwLjYzLDAuNjIsMC42M3MwLjYyLDAuMjgsMC42MiwwLjYzdjIuNTEgICAgICAgIGMwLDAuNzUsMC4zNCwxLjQyLDAuODYsMS44OGMtMC41MiwwLjQ2LTAuODYsMS4xMy0wLjg2LDEuODl2Mi41MWMwLDAuMzQtMC4yOCwwLjYyLTAuNjIsMC42MlMwLDU2LjAzLDAsNTYuMzggICAgICAgIGMwLDAuMzUsMC4yOCwwLjYzLDAuNjIsMC42M2MxLjAzLDAsMS44Ny0wLjg1LDEuODctMS44OHYtMi41MWMwLTAuNywwLjU1LTEuMjYsMS4yNC0xLjI2YzAuMzQsMCwwLjYyLTAuMjgsMC42Mi0wLjYzICAgICAgICBDNC4zNSw1MC4zOSw0LjA3LDUwLjEsMy43Myw1MC4xeiIvPiYjeGE7CQkJCQk8L2c+JiN4YTsJCQkJCTxnIGlkPSJzaGFwZTQxNDMtMTciIHRyYW5zZm9ybT0idHJhbnNsYXRlKDcuNDU2MjcsLTEuODgzMTQpIj4mI3hhOwkJCQkJCTx0aXRsZSBpZD0idGl0bGU2ODYyNyI+U2hlZXQuNDE0MzwvdGl0bGU+JiN4YTsJCQkJCQk8cGF0aCBpZD0icGF0aDY4NjI5IiBpbmtzY2FwZTpjb25uZWN0b3ItY3VydmF0dXJlPSIwIiBzdHlsZT0iZmlsbDojRUVBRjRCOyIgZD0iTTAuNjIsNTMuODdDMC4yOCw1My44NywwLDU0LjE1LDAsNTQuNXYxLjg4ICAgICAgICBjMCwwLjM1LDAuMjgsMC42MywwLjYyLDAuNjNzMC42Mi0wLjI4LDAuNjItMC42M1Y1NC41QzEuMjQsNTQuMTUsMC45Niw1My44NywwLjYyLDUzLjg3eiIvPiYjeGE7CQkJCQk8L2c+JiN4YTsJCQkJPC9nPiYjeGE7CQkJPC9nPiYjeGE7CQk8L2c+JiN4YTsJCTxnIGlkPSJncm91cDQxNDQtMTkiIHRyYW5zZm9ybT0idHJhbnNsYXRlKDMuODEzMzQsLTIuNDU3ODEpIj4mI3hhOwkJCTx0aXRsZSBpZD0idGl0bGU2ODYzNSI+SlNPTi4zNjY2NDwvdGl0bGU+JiN4YTsJCQk8ZyBpZD0ic2hhcGU0MTQ1LTIwIiB0cmFuc2Zvcm09InRyYW5zbGF0ZSgwLC01LjMwOTcyZS01KSI+JiN4YTsJCQkJPHRpdGxlIGlkPSJ0aXRsZTY4NjM3Ij5TaGVldC40MTQ1PC90aXRsZT4mI3hhOwkJCQk8cGF0aCBpZD0icGF0aDY4NjM5IiBpbmtzY2FwZTpjb25uZWN0b3ItY3VydmF0dXJlPSIwIiBzdHlsZT0iZmlsbDojRkZGRkZGOyIgZD0iTTMuNDgsNTEuMTd2NC40M2MwLDAuMjYtMC4wNSwwLjQ5LTAuMTUsMC42NyAgICAgIGMtMC4wOSwwLjE4LTAuMjMsMC4zMy0wLjM5LDAuNDRjLTAuMTYsMC4xMS0wLjM1LDAuMTktMC41NywwLjIzYy0wLjIxLDAuMDUtMC40MywwLjA3LTAuNjYsMC4wN2MtMC4xMSwwLTAuMjQtMC4wMS0wLjM5LTAuMDQgICAgICBjLTAuMTYtMC4wMi0wLjMxLTAuMDUtMC40OC0wLjFjLTAuMTYtMC4wNS0wLjMxLTAuMTEtMC40Ni0wLjE3QzAuMjMsNTYuNjQsMC4xLDU2LjU3LDAsNTYuNDlsMC4zOS0wLjYyICAgICAgYzAuMDUsMC4wMywwLjEzLDAuMDcsMC4yMiwwLjExYzAuMSwwLjA0LDAuMiwwLjA3LDAuMzIsMC4xMWMwLjExLDAuMDMsMC4yMywwLjA2LDAuMzUsMC4wOWMwLjEyLDAuMDIsMC4yNCwwLjAzLDAuMzUsMC4wMyAgICAgIGMwLjI3LDAsMC40OS0wLjA1LDAuNjUtMC4xNWMwLjE2LTAuMTEsMC4yNS0wLjI5LDAuMjYtMC41NHYtNC4zNUwzLjQ4LDUxLjE3eiIvPiYjeGE7CQkJPC9nPiYjeGE7CQkJPGcgaWQ9InNoYXBlNDE0Ni0yMiIgdHJhbnNmb3JtPSJ0cmFuc2xhdGUoNC43ODQwNSwtMC4wMDc4NTgzOCkiPiYjeGE7CQkJCTx0aXRsZSBpZD0idGl0bGU2ODY0MiI+U2hlZXQuNDE0NjwvdGl0bGU+JiN4YTsJCQkJPHBhdGggaWQ9InBhdGg2ODY0NCIgaW5rc2NhcGU6Y29ubmVjdG9yLWN1cnZhdHVyZT0iMCIgc3R5bGU9ImZpbGw6I0ZGRkZGRjsiIGQ9Ik0zLjMsNTUuNDJjMCwwLjIxLTAuMDQsMC40LTAuMTIsMC42ICAgICAgYy0wLjA5LDAuMTktMC4yMSwwLjM2LTAuMzYsMC41MWMtMC4xNiwwLjE0LTAuMzUsMC4yNi0wLjU3LDAuMzVjLTAuMjMsMC4wOS0wLjQ5LDAuMTMtMC43OCwwLjEzYy0wLjEyLDAtMC4yNS0wLjAxLTAuMzgtMC4wMiAgICAgIGMtMC4xMy0wLjAxLTAuMjYtMC4wNC0wLjQtMC4wN2MtMC4xMy0wLjAzLTAuMjYtMC4wNy0wLjM4LTAuMTJDMC4xOSw1Ni43NCwwLjA5LDU2LjY4LDAsNTYuNmwwLjE2LTAuNjYgICAgICBjMC4wNywwLjA0LDAuMTcsMC4wOCwwLjI4LDAuMTJjMC4xMSwwLjAzLDAuMjIsMC4wNywwLjM0LDAuMWMwLjEyLDAuMDQsMC4yNCwwLjA2LDAuMzUsMC4wOGMwLjEyLDAuMDMsMC4yMywwLjA0LDAuMzQsMC4wNCAgICAgIGMwLjMxLDAsMC41NS0wLjA4LDAuNzItMC4yMmMwLjE2LTAuMTUsMC4yNS0wLjM3LDAuMjUtMC42NmMwLTAuMTctMC4wNi0wLjMyLTAuMTgtMC40NGMtMC4xMi0wLjEzLTAuMjctMC4yNC0wLjQ0LTAuMzQgICAgICBjLTAuMTgtMC4xLTAuMzctMC4yLTAuNTgtMC4zYy0wLjItMC4xLTAuNC0wLjIyLTAuNTgtMC4zNmMtMC4xOC0wLjEzLTAuMzMtMC4yOS0wLjQ0LTAuNDhjLTAuMTItMC4xOC0wLjE4LTAuNDEtMC4xOC0wLjY5ICAgICAgYzAtMC4yNSwwLjA0LTAuNDgsMC4xNC0wLjY3YzAuMDktMC4yLDAuMjEtMC4zNiwwLjM3LTAuNXMwLjM0LTAuMjQsMC41NS0wLjMxYzAuMjEtMC4wOCwwLjQzLTAuMTEsMC42Ni0wLjExICAgICAgYzAuMjQsMCwwLjQ4LDAuMDIsMC43MiwwLjA2YzAuMjQsMC4wNSwwLjQzLDAuMTIsMC41OCwwLjIyQzMuMDMsNTEuNTQsMyw1MS42MiwyLjk2LDUxLjdjLTAuMDUsMC4wOC0wLjA4LDAuMTUtMC4xMiwwLjIyICAgICAgYy0wLjA0LDAuMDctMC4wNywwLjEzLTAuMDksMC4xN2MtMC4wMywwLjA1LTAuMDQsMC4wOC0wLjA1LDAuMDhjLTAuMDMtMC4wMS0wLjA2LTAuMDMtMC4xLTAuMDZjLTAuMDQtMC4wMy0wLjEtMC4wNS0wLjE3LTAuMDggICAgICBjLTAuMDctMC4wMi0wLjE3LTAuMDQtMC4yOS0wLjA1Yy0wLjExLTAuMDEtMC4yNy0wLjAxLTAuNDUsMC4wMWMtMC4xLDAuMDEtMC4yLDAuMDQtMC4yOSwwLjA4Yy0wLjEsMC4wNS0wLjE4LDAuMTEtMC4yNSwwLjE5ICAgICAgYy0wLjA3LDAuMDctMC4xMywwLjE1LTAuMTcsMC4yNGMtMC4wNCwwLjA5LTAuMDYsMC4xOC0wLjA2LDAuMjZjMCwwLjIsMC4wNiwwLjM3LDAuMTcsMC41YzAuMTIsMC4xMiwwLjI3LDAuMjMsMC40NCwwLjMzICAgICAgYzAuMTgsMC4wOSwwLjM3LDAuMTksMC41OCwwLjI4YzAuMiwwLjA4LDAuMzksMC4xOSwwLjU3LDAuMzJjMC4xOCwwLjEzLDAuMzMsMC4yOSwwLjQ0LDAuNDlDMy4yNCw1NC44NywzLjMsNTUuMTIsMy4zLDU1LjQyeiIvPiYjeGE7CQkJPC9nPiYjeGE7CQkJPGcgaWQ9InNoYXBlNDE0Ny0yNCIgdHJhbnNmb3JtPSJ0cmFuc2xhdGUoOC45MzY1MikiPiYjeGE7CQkJCTx0aXRsZSBpZD0idGl0bGU2ODY0NyI+U2hlZXQuNDE0NzwvdGl0bGU+JiN4YTsJCQkJPHBhdGggaWQ9InBhdGg2ODY0OSIgaW5rc2NhcGU6Y29ubmVjdG9yLWN1cnZhdHVyZT0iMCIgc3R5bGU9ImZpbGw6I0ZGRkZGRjsiIGQ9Ik00Ljc0LDU0LjFjMCwwLjQ4LTAuMDYsMC45LTAuMTgsMS4yNyAgICAgIGMtMC4xMiwwLjM2LTAuMjksMC42Ni0wLjUxLDAuOTFjLTAuMjEsMC4yNC0wLjQ2LDAuNDItMC43NCwwLjU0Yy0wLjI5LDAuMTMtMC42LDAuMTktMC45NCwwLjE5cy0wLjY1LTAuMDYtMC45NC0wLjE5ICAgICAgYy0wLjI4LTAuMTItMC41My0wLjMtMC43NS0wLjU0Yy0wLjIxLTAuMjUtMC4zOC0wLjU1LTAuNS0wLjkxQzAuMDYsNTUsMCw1NC41OCwwLDU0LjFjMC0wLjQ4LDAuMDYtMC45LDAuMTgtMS4yNiAgICAgIHMwLjI5LTAuNjcsMC41LTAuOTFjMC4yMi0wLjI0LDAuNDctMC40MiwwLjc1LTAuNTVjMC4yOS0wLjEzLDAuNi0wLjE5LDAuOTQtMC4xOXMwLjY1LDAuMDYsMC45NCwwLjE5ICAgICAgYzAuMjgsMC4xMywwLjUzLDAuMzEsMC43NCwwLjU1YzAuMjIsMC4yNCwwLjM5LDAuNTUsMC41MSwwLjkxQzQuNjgsNTMuMiw0Ljc0LDUzLjYyLDQuNzQsNTQuMXogTTIuMzUsNTYuMjUgICAgICBjMC4xOSwwLDAuMzctMC4wMywwLjU0LTAuMTFjMC4xNy0wLjA3LDAuMzMtMC4yLDAuNDYtMC4zNmMwLjE0LTAuMTcsMC4yNS0wLjQsMC4zMi0wLjY3YzAuMDgtMC4yOCwwLjEyLTAuNjEsMC4xMy0xLjAxICAgICAgYy0wLjAxLTAuMzktMC4wNS0wLjcxLTAuMTItMC45OGMtMC4wOC0wLjI3LTAuMTgtMC41LTAuMzEtMC42N2MtMC4xMy0wLjE4LTAuMjgtMC4zLTAuNDUtMC4zOGMtMC4xNy0wLjA4LTAuMzQtMC4xMS0wLjUzLTAuMTEgICAgICBjLTAuMTksMC0wLjM3LDAuMDMtMC41NCwwLjFjLTAuMTgsMC4wOC0wLjMzLDAuMi0wLjQ3LDAuMzdjLTAuMTMsMC4xNy0wLjI0LDAuMzktMC4zMiwwLjY3Yy0wLjA3LDAuMjctMC4xMSwwLjYtMC4xMiwxICAgICAgYzAuMDEsMC4zOSwwLjA1LDAuNzIsMC4xMiwwLjk5YzAuMDgsMC4yNywwLjE4LDAuNDksMC4zMSwwLjY3YzAuMTMsMC4xNywwLjI4LDAuMjksMC40NSwwLjM3QzEuOTgsNTYuMjEsMi4xNiw1Ni4yNSwyLjM1LDU2LjI1ICAgICAgeiIvPiYjeGE7CQkJPC9nPiYjeGE7CQkJPGcgaWQ9InNoYXBlNDE0OC0yNiIgdHJhbnNmb3JtPSJ0cmFuc2xhdGUoMTQuOTc4NywtMC4wMzgzODkyKSI+JiN4YTsJCQkJPHRpdGxlIGlkPSJ0aXRsZTY4NjUyIj5TaGVldC40MTQ4PC90aXRsZT4mI3hhOwkJCQk8cGF0aCBpZD0icGF0aDY4NjU0IiBpbmtzY2FwZTpjb25uZWN0b3ItY3VydmF0dXJlPSIwIiBzdHlsZT0iZmlsbDojRkZGRkZGOyIgZD0iTTQuMTEsNTEuMzJ2NS42OUgzLjE3bC0yLjIzLTMuOTJ2My45Mkgwdi01LjY5ICAgICAgaDAuOTRsMi4yMywzLjkydi0zLjkyTDQuMTEsNTEuMzJ6Ii8+JiN4YTsJCQk8L2c+JiN4YTsJCTwvZz4mI3hhOwk8L2c+JiN4YTs8L2c+JiN4YTs8L3N2Zz4=;fontSize=12;fontColor=#000099;" vertex="1" parent="1">
          <mxGeometry x="703.5" y="447.5" width="27" height="35" as="geometry" />
        </mxCell>
        <mxCell id="W9i3NO5GFUiRPg8KUzHi-2097" value="" style="edgeStyle=orthogonalEdgeStyle;rounded=0;orthogonalLoop=1;jettySize=auto;html=1;labelBackgroundColor=none;fontSize=12;fontColor=#000099;exitX=0;exitY=0.5;exitDx=0;exitDy=0;" edge="1" parent="1" source="W9i3NO5GFUiRPg8KUzHi-2096">
          <mxGeometry relative="1" as="geometry">
            <mxPoint x="690" y="506" as="targetPoint" />
            <Array as="points">
              <mxPoint x="625" y="466" />
              <mxPoint x="625" y="506" />
            </Array>
          </mxGeometry>
        </mxCell>
        <mxCell id="2069" value="" style="verticalLabelPosition=bottom;html=1;verticalAlign=top;strokeColor=none;fillColor=#3399FF;shape=mxgraph.azure.cloud;dashed=1;fontSize=14;fontColor=#004C99;opacity=20;shadow=0;sketch=1;" parent="1" vertex="1">
          <mxGeometry x="860" y="320" width="200" height="132" as="geometry" />
        </mxCell>
        <mxCell id="2077" value="ENVIA JSON" style="arrow;html=1;endArrow=block;endFill=1;strokeColor=none;strokeWidth=4;fontFamily=Helvetica;fontSize=12;fontColor=#000099;fillColor=#FFB366;labelBackgroundColor=none;" parent="1" edge="1">
          <mxGeometry x="-1" y="-72" width="100" height="100" relative="1" as="geometry">
            <mxPoint x="812.5" y="506" as="sourcePoint" />
            <mxPoint x="892.5" y="506" as="targetPoint" />
            <mxPoint x="-72" y="-72" as="offset" />
          </mxGeometry>
        </mxCell>
        <mxCell id="2079" value="&#xa;&#xa;&lt;span style=&quot;color: rgb(0, 0, 153); font-family: helvetica; font-size: 12px; font-style: normal; font-weight: 400; letter-spacing: normal; text-align: center; text-indent: 0px; text-transform: none; word-spacing: 0px; display: inline; float: none;&quot;&gt;SOLICITA&amp;nbsp;&lt;/span&gt;&lt;br style=&quot;color: rgb(0, 0, 153); font-family: helvetica; font-size: 12px; font-style: normal; font-weight: 400; letter-spacing: normal; text-align: center; text-indent: 0px; text-transform: none; word-spacing: 0px;&quot;&gt;&lt;span style=&quot;color: rgb(0, 0, 153); font-family: helvetica; font-size: 12px; font-style: normal; font-weight: 400; letter-spacing: normal; text-align: center; text-indent: 0px; text-transform: none; word-spacing: 0px; display: inline; float: none;&quot;&gt;ACTIVIDADES&amp;nbsp;&lt;/span&gt;&lt;br style=&quot;color: rgb(0, 0, 153); font-family: helvetica; font-size: 12px; font-style: normal; font-weight: 400; letter-spacing: normal; text-align: center; text-indent: 0px; text-transform: none; word-spacing: 0px;&quot;&gt;&lt;span style=&quot;color: rgb(0, 0, 153); font-family: helvetica; font-size: 12px; font-style: normal; font-weight: 400; letter-spacing: normal; text-align: center; text-indent: 0px; text-transform: none; word-spacing: 0px; display: inline; float: none;&quot;&gt;PENDIENTES&lt;/span&gt;&#xa;&#xa;" style="arrow;html=1;endArrow=block;endFill=1;strokeColor=none;strokeWidth=4;fontFamily=Helvetica;fontSize=12;fontColor=#000099;fillColor=#FFB366;labelBackgroundColor=none;" parent="1" edge="1">
          <mxGeometry x="-1" y="91" width="100" height="100" relative="1" as="geometry">
            <mxPoint x="630" y="299.5" as="sourcePoint" />
            <mxPoint x="530" y="300" as="targetPoint" />
            <mxPoint x="90" y="-80" as="offset" />
          </mxGeometry>
        </mxCell>
        <mxCell id="W9i3NO5GFUiRPg8KUzHi-2100" value="&lt;p style=&quot;line-height: 0%&quot;&gt;createActivitiSchema();&lt;/p&gt;" style="sketch=0;html=1;dashed=0;whitespace=wrap;fillColor=#2875E2;strokeColor=#ffffff;points=[[0.005,0.63,0],[0.1,0.2,0],[0.9,0.2,0],[0.5,0,0],[0.995,0.63,0],[0.72,0.99,0],[0.5,1,0],[0.28,0.99,0]];shape=mxgraph.kubernetes.icon;prIcon=api;labelBackgroundColor=none;fontSize=12;fontColor=#000099;verticalAlign=bottom;spacingTop=13;" vertex="1" parent="1">
          <mxGeometry x="935" y="410" width="75" height="120" as="geometry" />
        </mxCell>
        <mxCell id="2082" value="RESPONSE" style="arrow;html=1;endArrow=block;endFill=1;strokeColor=none;strokeWidth=4;fontFamily=Helvetica;fontSize=12;fontColor=#000099;fillColor=#FFB366;" parent="1" edge="1">
          <mxGeometry x="-1" y="-57" width="100" height="100" relative="1" as="geometry">
            <mxPoint x="892.5" y="560" as="sourcePoint" />
            <mxPoint x="812.5" y="560" as="targetPoint" />
            <mxPoint x="58" y="57" as="offset" />
          </mxGeometry>
        </mxCell>
        <mxCell id="2066" value="ARMA JSON" style="verticalLabelPosition=bottom;html=1;verticalAlign=top;strokeColor=none;fillColor=#3399FF;shape=mxgraph.azure.service_bus;dashed=1;fontFamily=Helvetica;fontSize=14;fontColor=#004C99" parent="1" vertex="1">
          <mxGeometry x="694.5" y="361" width="45" height="50" as="geometry" />
        </mxCell>
        <mxCell id="2085" value="" style="arrow;html=1;endArrow=block;endFill=1;strokeColor=none;strokeWidth=4;fontFamily=Helvetica;fontSize=36;fontColor=#FFB366;fillColor=#FFB366;" parent="1" edge="1">
          <mxGeometry width="100" height="100" relative="1" as="geometry">
            <mxPoint x="530" y="350" as="sourcePoint" />
            <mxPoint x="630" y="350" as="targetPoint" />
          </mxGeometry>
        </mxCell>
        <mxCell id="W9i3NO5GFUiRPg8KUzHi-2106" value="ACTUALIZA&lt;br&gt;ACTIVIDADES&amp;nbsp;PENDIENTES" style="sketch=0;pointerEvents=1;shadow=0;dashed=0;html=1;strokeColor=none;labelPosition=center;verticalLabelPosition=bottom;verticalAlign=top;align=center;fillColor=#505050;shape=mxgraph.mscae.intune.update;labelBackgroundColor=none;fontSize=12;fontColor=#000099;" vertex="1" parent="1">
          <mxGeometry x="694.5" y="530" width="42.5" height="40" as="geometry" />
        </mxCell>
        <mxCell id="W9i3NO5GFUiRPg8KUzHi-2107" value="&lt;br&gt;" style="arrow;html=1;endArrow=block;endFill=1;strokeColor=none;strokeWidth=4;fontFamily=Helvetica;fontSize=12;fontColor=#000099;fillColor=#FFB366;labelBackgroundColor=none;" edge="1" parent="1">
          <mxGeometry x="-1" y="52" width="100" height="100" relative="1" as="geometry">
            <mxPoint x="623.5" y="583" as="sourcePoint" />
            <mxPoint x="530" y="583" as="targetPoint" />
            <mxPoint x="48" y="-32" as="offset" />
          </mxGeometry>
        </mxCell>
        <mxCell id="W9i3NO5GFUiRPg8KUzHi-2118" style="edgeStyle=orthogonalEdgeStyle;rounded=0;orthogonalLoop=1;jettySize=auto;html=1;labelBackgroundColor=none;fontSize=12;fontColor=#000099;strokeColor=default;exitX=0.935;exitY=0.373;exitDx=0;exitDy=0;exitPerimeter=0;" edge="1" parent="1" source="W9i3NO5GFUiRPg8KUzHi-2110" target="W9i3NO5GFUiRPg8KUzHi-2106">
          <mxGeometry relative="1" as="geometry">
            <Array as="points">
              <mxPoint x="743" y="620" />
              <mxPoint x="810" y="620" />
              <mxPoint x="810" y="550" />
            </Array>
          </mxGeometry>
        </mxCell>
        <mxCell id="W9i3NO5GFUiRPg8KUzHi-2110" value="&lt;p style=&quot;line-height: 0%&quot;&gt;ApiCompletaTarea()&lt;/p&gt;" style="sketch=0;html=1;dashed=0;whitespace=wrap;fillColor=#2875E2;strokeColor=#ffffff;points=[[0.005,0.63,0],[0.1,0.2,0],[0.9,0.2,0],[0.5,0,0],[0.995,0.63,0],[0.72,0.99,0],[0.5,1,0],[0.28,0.99,0]];shape=mxgraph.kubernetes.icon;prIcon=api;labelBackgroundColor=none;fontSize=12;fontColor=#000099;verticalAlign=bottom;spacingTop=13;" vertex="1" parent="1">
          <mxGeometry x="696" y="603.5" width="50.25" height="100.5" as="geometry" />
        </mxCell>
        <mxCell id="W9i3NO5GFUiRPg8KUzHi-2111" value="" style="arrow;html=1;endArrow=block;endFill=1;strokeColor=none;strokeWidth=4;fontFamily=Helvetica;fontSize=12;fontColor=#000099;fillColor=#FFB366;" edge="1" parent="1">
          <mxGeometry x="-1" y="-57" width="100" height="100" relative="1" as="geometry">
            <mxPoint x="892.5" y="670" as="sourcePoint" />
            <mxPoint x="812.5" y="670" as="targetPoint" />
            <mxPoint x="58" y="57" as="offset" />
          </mxGeometry>
        </mxCell>
        <mxCell id="W9i3NO5GFUiRPg8KUzHi-2112" value="&lt;p style=&quot;line-height: 0%&quot;&gt;&lt;br&gt;&lt;/p&gt;" style="sketch=0;html=1;dashed=0;whitespace=wrap;fillColor=#2875E2;strokeColor=#ffffff;points=[[0.005,0.63,0],[0.1,0.2,0],[0.9,0.2,0],[0.5,0,0],[0.995,0.63,0],[0.72,0.99,0],[0.5,1,0],[0.28,0.99,0]];shape=mxgraph.kubernetes.icon;prIcon=api;labelBackgroundColor=none;fontSize=12;fontColor=#000099;verticalAlign=bottom;spacingTop=13;" vertex="1" parent="1">
          <mxGeometry x="932.5" y="280" width="75" height="120" as="geometry" />
        </mxCell>
        <mxCell id="W9i3NO5GFUiRPg8KUzHi-2113" value="&lt;p style=&quot;line-height: 0%&quot;&gt;&lt;br&gt;&lt;/p&gt;" style="sketch=0;html=1;dashed=0;whitespace=wrap;fillColor=#2875E2;strokeColor=#ffffff;points=[[0.005,0.63,0],[0.1,0.2,0],[0.9,0.2,0],[0.5,0,0],[0.995,0.63,0],[0.72,0.99,0],[0.5,1,0],[0.28,0.99,0]];shape=mxgraph.kubernetes.icon;prIcon=api;labelBackgroundColor=none;fontSize=12;fontColor=#000099;verticalAlign=bottom;spacingTop=13;" vertex="1" parent="1">
          <mxGeometry x="947.5" y="222" width="75" height="120" as="geometry" />
        </mxCell>
        <mxCell id="W9i3NO5GFUiRPg8KUzHi-2114" value="&lt;p style=&quot;line-height: 0%&quot;&gt;&lt;br&gt;&lt;/p&gt;" style="sketch=0;html=1;dashed=0;whitespace=wrap;fillColor=#2875E2;strokeColor=#ffffff;points=[[0.005,0.63,0],[0.1,0.2,0],[0.9,0.2,0],[0.5,0,0],[0.995,0.63,0],[0.72,0.99,0],[0.5,1,0],[0.28,0.99,0]];shape=mxgraph.kubernetes.icon;prIcon=api;labelBackgroundColor=none;fontSize=12;fontColor=#000099;verticalAlign=bottom;spacingTop=13;" vertex="1" parent="1">
          <mxGeometry x="892.5" y="260" width="75" height="120" as="geometry" />
        </mxCell>
        <mxCell id="W9i3NO5GFUiRPg8KUzHi-2115" value="" style="sketch=0;pointerEvents=1;shadow=0;dashed=0;html=1;strokeColor=none;fillColor=#505050;labelPosition=center;verticalLabelPosition=bottom;verticalAlign=top;outlineConnect=0;align=center;shape=mxgraph.office.services.device_update_service;labelBackgroundColor=none;fontSize=12;fontColor=#000099;" vertex="1" parent="1">
          <mxGeometry x="940" y="650" width="50" height="54" as="geometry" />
        </mxCell>
        <mxCell id="W9i3NO5GFUiRPg8KUzHi-2116" value="PL9150" style="arrow;html=1;endArrow=block;endFill=1;strokeColor=none;strokeWidth=4;fontFamily=Helvetica;fontSize=12;fontColor=#000099;fillColor=#FFB366;labelBackgroundColor=none;" edge="1" parent="1">
          <mxGeometry x="-1" y="-50" width="100" height="100" relative="1" as="geometry">
            <mxPoint x="660" y="740" as="sourcePoint" />
            <mxPoint x="280" y="740" as="targetPoint" />
            <mxPoint x="50" y="50" as="offset" />
          </mxGeometry>
        </mxCell>
      </root>
    </mxGraphModel>
  </diagram>
</mxfile>
